# xmcd
#
# Track frame offsets:
#	182
#	13685
#	27370
#	38122
#	50945
#	64570
#	78000
#	90097
#	101437
#	113550
#	126520
#	138287
#	150210
#	162135
#	172490
#	183055
#	194882
#	205307
#
# Disc length: 2878 seconds
#
# Revision: 3
# Processed by: cddbd v1.5.2PL0 Copyright (c) Steve Scherf et al.
# Submitted via: EasyCDDAExtractor 16.0.6.1
#
DISCID=e80b3c12
DTITLE=Robert Johnson - Jazz and Blues Collection - Robert Johnson - Cd 21
DYEAR=1936
DGENRE=Blues
TTITLE0=I Believe I'll Dust My Broom
TTITLE1=Sweet Home Chicago
TTITLE2=Rambling On My Mind
TTITLE3=Come On In My Kichen
TTITLE4=Terraplane Blues
TTITLE5=They're Red Hot
TTITLE6=Cross Road Blues
TTITLE7=Walking Blues
TTITLE8=Last Fair Deal Gone Down
TTITLE9=Preaching Blues
TTITLE10=If I Had Possession Over Judgement Day
TTITLE11=I'm A Steady Rollin' Man
TTITLE12=Hellhound On My Trail
TTITLE13=Little Queen Of Spades
TTITLE14=Malted Milk
TTITLE15=Me And The Devil Blues
TTITLE16=Stop Breakin' Down Blues
TTITLE17=Love Is Vain
EXTD=
EXTT0=
EXTT1=
EXTT2=
EXTT3=
EXTT4=
EXTT5=
EXTT6=
EXTT7=
EXTT8=
EXTT9=
EXTT10=
EXTT11=
EXTT12=
EXTT13=
EXTT14=
EXTT15=
EXTT16=
EXTT17=
PLAYORDER=
